{
  "asset": {
    "version": "2.0",
    "generator": "THREE.GLTFExporter"
  },
  "scenes": [
    {
      "nodes": [
        0
      ]
    }
  ],
  "scene": 0,
  "nodes": [
    {
      "children": [
        1,
        2,
        3,
        4,
        5,
        6,
        7,
        8,
        9,
        10
      ],
      "matrix": [
        0.01,
        0,
        0,
        0,
        0,
        0.01,
        0,
        0,
        0,
        0,
        0.01,
        0,
        0,
        0,
        0,
        1
      ]
    },
    {
      "matrix": [
        0.6794409865771027,
        -0.435803875356325,
        0.5902837690327781,
        0,
        0.5398985861708553,
        0.8417300735097396,
        0,
        0,
        -0.4968596002995665,
        0.3186933723404006,
        0.8071958077297341,
        0,
        0,
        0,
        0,
        1
      ],
      "name": "Directional Light 2",
      "extensions": {
        "KHR_lights_punctual": {
          "light": 0
        }
      }
    },
    {
      "matrix": [
        0.6889707045783842,
        0,
        -0.7247891888216635,
        0,
        0,
        1,
        0,
        0,
        0.5791102437442844,
        0,
        0.5504910928786385,
        0,
        75.97238197859505,
        0,
        47.27959369343336,
        1
      ],
      "name": "Bunny",
      "mesh": 0
    },
    {
      "matrix": [
        0.9602132007635251,
        0.08378234966434193,
        -0.2664040670939318,
        0,
        -0.16549209113746088,
        0.9391071095773098,
        -0.30114814379687116,
        0,
        0.224951054343865,
        0.3332541892100872,
        0.9156083597933731,
        0,
        -15.306362718521058,
        80.81203365892131,
        9.273444706472539,
        1
      ],
      "name": "Rectangle 2",
      "mesh": 1
    },
    {
      "matrix": [
        0.9743700647852352,
        -0.07693779184794895,
        -0.2113848458049398,
        0,
        0,
        0.9396926207859084,
        -0.3420201433256685,
        0,
        0.224951054343865,
        0.33325418921008704,
        0.9156083597933731,
        0,
        186.007807551381,
        133.29004327517333,
        -20.24904942501564,
        1
      ],
      "name": "Sphere",
      "mesh": 2
    },
    {
      "matrix": [
        0.9743700647852352,
        -0.07693779184794895,
        -0.2113848458049398,
        0,
        0,
        0.9396926207859084,
        -0.3420201433256685,
        0,
        0.224951054343865,
        0.33325418921008704,
        0.9156083597933731,
        0,
        -195.51692532621803,
        30.15623875156605,
        104.55793074698776,
        1
      ],
      "name": "Ellipse",
      "mesh": 3
    },
    {
      "matrix": [
        0.9714791446973566,
        -0.14904219388138829,
        -0.1844307345892083,
        0,
        0.07500196375879647,
        0.9309823144490716,
        -0.3572766933559675,
        0,
        0.224951054343865,
        0.33325418921008704,
        0.9156083597933731,
        0,
        25.976279747065345,
        86.53430244294339,
        27.934824090056857,
        1
      ],
      "name": "Text",
      "mesh": 4
    },
    {
      "matrix": [
        0.4440497305366121,
        0.72649907425324,
        -0.5244224746514469,
        0,
        -0.8532410321314883,
        0.5215167697085038,
        0,
        0,
        0.2734951149427623,
        0.44745877354454977,
        0.8514582010177908,
        0,
        0,
        0,
        0,
        1
      ],
      "name": "Directional Light",
      "extensions": {
        "KHR_lights_punctual": {
          "light": 1
        }
      }
    },
    {
      "matrix": [
        0.9542139264787712,
        -0.07422878994187114,
        -0.20747787942174128,
        0,
        6.938893903907228e-18,
        0.9415555550081562,
        -0.33685773975564653,
        0,
        0.48362026300451283,
        0.7054576044834001,
        1.9718339463000512,
        0,
        -21.84707394555194,
        65.63415331257103,
        -26.735417445611347,
        1
      ],
      "name": "Rectangle",
      "mesh": 5
    },
    {
      "matrix": [
        0.9825762373958326,
        -2.57909735022592e-8,
        0.18585999490220514,
        0,
        0.0070539009137404775,
        0.9992795394120141,
        -0.037291347446990517,
        0,
        -0.1857260891392147,
        0.03795262984975309,
        0.9818683301240244,
        0,
        -185.72608913921277,
        37.95262984975269,
        981.8683301240231,
        1
      ],
      "camera": 0
    },
    {
      "matrix": [
        1,
        0,
        0,
        0,
        0,
        1,
        0,
        0,
        0,
        0,
        1,
        0,
        0,
        1,
        0,
        1
      ],
      "name": "Default Ambient Light"
    }
  ],
  "extensions": {
    "KHR_lights_punctual": {
      "lights": [
        {
          "name": "Directional Light 2",
          "color": [
            1,
            1,
            1
          ],
          "intensity": 0.658,
          "type": "directional"
        },
        {
          "name": "Directional Light",
          "color": [
            1,
            1,
            1
          ],
          "intensity": 0.871,
          "type": "directional"
        }
      ]
    }
  },
  "bufferViews": [
    {
      "buffer": 0,
      "byteOffset": 0,
      "byteLength": 180072,
      "target": 34962,
      "byteStride": 12
    },
    {
      "buffer": 0,
      "byteOffset": 180072,
      "byteLength": 180072,
      "target": 34962,
      "byteStride": 12
    },
    {
      "buffer": 0,
      "byteOffset": 360144,
      "byteLength": 120048,
      "target": 34962,
      "byteStride": 8
    },
    {
      "buffer": 0,
      "byteOffset": 480192,
      "byteLength": 7872,
      "target": 34962,
      "byteStride": 12
    },
    {
      "buffer": 0,
      "byteOffset": 488064,
      "byteLength": 7872,
      "target": 34962,
      "byteStride": 12
    },
    {
      "buffer": 0,
      "byteOffset": 495936,
      "byteLength": 5248,
      "target": 34962,
      "byteStride": 8
    },
    {
      "buffer": 0,
      "byteOffset": 501184,
      "byteLength": 7824,
      "target": 34963
    },
    {
      "buffer": 0,
      "byteOffset": 509008,
      "byteLength": 50700,
      "target": 34962,
      "byteStride": 12
    },
    {
      "buffer": 0,
      "byteOffset": 559708,
      "byteLength": 50700,
      "target": 34962,
      "byteStride": 12
    },
    {
      "buffer": 0,
      "byteOffset": 610408,
      "byteLength": 33800,
      "target": 34962,
      "byteStride": 8
    },
    {
      "buffer": 0,
      "byteOffset": 644208,
      "byteLength": 48384,
      "target": 34963
    },
    {
      "buffer": 0,
      "byteOffset": 692592,
      "byteLength": 3072,
      "target": 34962,
      "byteStride": 12
    },
    {
      "buffer": 0,
      "byteOffset": 695664,
      "byteLength": 3072,
      "target": 34962,
      "byteStride": 12
    },
    {
      "buffer": 0,
      "byteOffset": 698736,
      "byteLength": 2048,
      "target": 34962,
      "byteStride": 8
    },
    {
      "buffer": 0,
      "byteOffset": 700784,
      "byteLength": 3024,
      "target": 34963
    },
    {
      "buffer": 0,
      "byteOffset": 703808,
      "byteLength": 66840,
      "target": 34962,
      "byteStride": 12
    },
    {
      "buffer": 0,
      "byteOffset": 770648,
      "byteLength": 66840,
      "target": 34962,
      "byteStride": 12
    },
    {
      "buffer": 0,
      "byteOffset": 837488,
      "byteLength": 44560,
      "target": 34962,
      "byteStride": 8
    },
    {
      "buffer": 0,
      "byteOffset": 882048,
      "byteLength": 33000,
      "target": 34963
    },
    {
      "buffer": 0,
      "byteOffset": 915048,
      "byteLength": 11808,
      "target": 34962,
      "byteStride": 12
    },
    {
      "buffer": 0,
      "byteOffset": 926856,
      "byteLength": 11808,
      "target": 34962,
      "byteStride": 12
    },
    {
      "buffer": 0,
      "byteOffset": 938664,
      "byteLength": 7872,
      "target": 34962,
      "byteStride": 8
    },
    {
      "buffer": 0,
      "byteOffset": 946536,
      "byteLength": 15696,
      "target": 34963
    }
  ],
  "buffers": [
    {
      "byteLength": 962232,
      "uri": "data:application/octet-stream;base64,"
    }
  ],
  "accessors": [
    {
      "bufferView": 0,
      "componentType": 5126,
      "count": 15006,
      "max": [
        50,
        49.68760681152344,
        39.00210189819336
      ],
      "min": [
        -50,
        -49.68760681152344,
        -39.00210189819336
      ],
      "type": "VEC3"
    },
    {
      "bufferView": 1,
      "componentType": 5126,
      "count": 15006,
      "max": [
        0.9985578060150146,
        0.9994427561759949,
        0.9996748566627502
      ],
      "min": [
        -0.999016523361206,
        -0.9999673366546631,
        -0.9995105862617493
      ],
      "type": "VEC3"
    },
    {
      "bufferView": 2,
      "componentType": 5126,
      "count": 15006,
      "max": [
        0.9919289946556091,
        0.9919300079345703
      ],
      "min": [
        0.008070999756455421,
        0.008070000447332859
      ],
      "type": "VEC2"
    },
    {
      "bufferView": 3,
      "componentType": 5126,
      "count": 656,
      "max": [
        220.39077758789062,
        104.36833190917969,
        20
      ],
      "min": [
        -220.39077758789062,
        -104.36833190917969,
        0
      ],
      "type": "VEC3"
    },
    {
      "bufferView": 4,
      "componentType": 5126,
      "count": 656,
      "max": [
        1,
        1,
        1
      ],
      "min": [
        -1,
        -1,
        -1
      ],
      "type": "VEC3"
    },
    {
      "bufferView": 5,
      "componentType": 5126,
      "count": 656,
      "max": [
        1,
        1
      ],
      "min": [
        0,
        0
      ],
      "type": "VEC2"
    },
    {
      "bufferView": 6,
      "componentType": 5125,
      "count": 1956,
      "max": [
        655
      ],
      "min": [
        0
      ],
      "type": "SCALAR"
    },
    {
      "bufferView": 7,
      "componentType": 5126,
      "count": 4225,
      "max": [
        19.506805419921875,
        19.506805419921875,
        19.506805419921875
      ],
      "min": [
        -19.506805419921875,
        -19.506805419921875,
        -19.506805419921875
      ],
      "type": "VEC3"
    },
    {
      "bufferView": 8,
      "componentType": 5126,
      "count": 4225,
      "max": [
        1,
        1,
        1
      ],
      "min": [
        -1,
        -1,
        -1
      ],
      "type": "VEC3"
    },
    {
      "bufferView": 9,
      "componentType": 5126,
      "count": 4225,
      "max": [
        1.0078125,
        1
      ],
      "min": [
        -0.0078125,
        0
      ],
      "type": "VEC2"
    },
    {
      "bufferView": 10,
      "componentType": 5123,
      "count": 24192,
      "max": [
        4224
      ],
      "min": [
        0
      ],
      "type": "SCALAR"
    },
    {
      "bufferView": 11,
      "componentType": 5126,
      "count": 256,
      "max": [
        50,
        50,
        11
      ],
      "min": [
        -50,
        -50,
        0
      ],
      "type": "VEC3"
    },
    {
      "bufferView": 12,
      "componentType": 5126,
      "count": 256,
      "max": [
        0.9987275004386902,
        0.9987275004386902,
        1
      ],
      "min": [
        -0.9987275004386902,
        -0.9987275004386902,
        -1
      ],
      "type": "VEC3"
    },
    {
      "bufferView": 13,
      "componentType": 5126,
      "count": 256,
      "max": [
        1,
        1
      ],
      "min": [
        0,
        0
      ],
      "type": "VEC2"
    },
    {
      "bufferView": 14,
      "componentType": 5125,
      "count": 756,
      "max": [
        255
      ],
      "min": [
        0
      ],
      "type": "SCALAR"
    },
    {
      "bufferView": 15,
      "componentType": 5126,
      "count": 5570,
      "max": [
        161.7037353515625,
        30.890539169311523,
        13
      ],
      "min": [
        -233.41624450683594,
        -26.469463348388672,
        0
      ],
      "type": "VEC3"
    },
    {
      "bufferView": 16,
      "componentType": 5126,
      "count": 5570,
      "max": [
        1,
        1,
        1
      ],
      "min": [
        -1,
        -1,
        -1
      ],
      "type": "VEC3"
    },
    {
      "bufferView": 17,
      "componentType": 5126,
      "count": 5570,
      "max": [
        1,
        1
      ],
      "min": [
        0,
        0
      ],
      "type": "VEC2"
    },
    {
      "bufferView": 18,
      "componentType": 5123,
      "count": 16500,
      "max": [
        5569
      ],
      "min": [
        0
      ],
      "type": "SCALAR"
    },
    {
      "bufferView": 19,
      "componentType": 5126,
      "count": 984,
      "max": [
        297.0002136230469,
        140.10418701171875,
        17.54337501525879
      ],
      "min": [
        -297.0002136230469,
        -140.10418701171875,
        0
      ],
      "type": "VEC3"
    },
    {
      "bufferView": 20,
      "componentType": 5126,
      "count": 984,
      "max": [
        1,
        1,
        1
      ],
      "min": [
        -1,
        -1,
        -1
      ],
      "type": "VEC3"
    },
    {
      "bufferView": 21,
      "componentType": 5126,
      "count": 984,
      "max": [
        1,
        1
      ],
      "min": [
        0,
        0
      ],
      "type": "VEC2"
    },
    {
      "bufferView": 22,
      "componentType": 5125,
      "count": 3924,
      "max": [
        983
      ],
      "min": [
        0
      ],
      "type": "SCALAR"
    }
  ],
  "meshes": [
    {
      "primitives": [
        {
          "mode": 4,
          "attributes": {
            "POSITION": 0,
            "NORMAL": 1,
            "TEXCOORD_0": 2
          },
          "extras": {
            "parameters": {
              "width": 100,
              "height": 99.37521135185285,
              "depth": 78.00420553436608,
              "subdivisions": 0
            },
            "type": "NonParametricGeometry"
          }
        }
      ]
    },
    {
      "primitives": [
        {
          "mode": 4,
          "attributes": {
            "POSITION": 3,
            "NORMAL": 4,
            "TEXCOORD_0": 5
          },
          "extras": {
            "shape": {
              "points": [
                -220.3907737991853,
                104.36833296550482,
                -220.3907737991853,
                104.36833296550482,
                -220.3907737991853,
                104.36833296550482,
                58,
                220.3907737991853,
                104.36833296550482,
                220.3907737991853,
                104.36833296550482,
                220.3907737991853,
                104.36833296550482,
                58,
                220.3907737991853,
                -104.36833296550482,
                220.3907737991853,
                -104.36833296550482,
                220.3907737991853,
                -104.36833296550482,
                58,
                -220.3907737991853,
                -104.36833296550482,
                -220.3907737991853,
                -104.36833296550482,
                -220.3907737991853,
                -104.36833296550482,
                58
              ],
              "shapeHoles": [],
              "isClosed": true,
              "roundness": 58
            },
            "parameters": {
              "width": 440.7815475983706,
              "depth": 20,
              "cornerRadius": [
                58,
                58,
                58,
                58
              ],
              "cornerType": 1,
              "extrudeBevelSize": 0,
              "extrudeBevelSegments": 1,
              "height": 208.73666593100964,
              "type": "RectangleGeometry"
            },
            "ui": {
              "enabledIndieCorners": false
            },
            "type": "RectangleGeometry"
          },
          "indices": 6
        }
      ]
    },
    {
      "primitives": [
        {
          "mode": 4,
          "attributes": {
            "POSITION": 7,
            "NORMAL": 8,
            "TEXCOORD_0": 9
          },
          "extras": {
            "parameters": {
              "width": 39.01361240824051,
              "widthSegments": 64,
              "heightSegments": 64,
              "phiStart": 0,
              "phiLength": 6.283185307179586,
              "thetaStart": 0,
              "thetaLength": 3.141592653589793,
              "height": 39.01361240824051,
              "depth": 39.01361240824051,
              "type": "SphereGeometry"
            },
            "type": "SphereGeometry"
          },
          "indices": 10
        }
      ]
    },
    {
      "primitives": [
        {
          "mode": 4,
          "attributes": {
            "POSITION": 11,
            "NORMAL": 12,
            "TEXCOORD_0": 13
          },
          "extras": {
            "shape": {
              "points": [
                -50,
                0,
                -50,
                -27.614237489999997,
                -50,
                27.614237489999997,
                0,
                0,
                50,
                -27.614237489999997,
                50,
                27.614237489999997,
                50,
                0,
                50,
                0,
                50,
                27.614237489999997,
                50,
                -27.614237489999997,
                0,
                0,
                -50,
                27.614237489999997,
                -50,
                -27.614237489999997,
                -50,
                0
              ],
              "shapeHoles": [],
              "isClosed": true,
              "roundness": 0
            },
            "parameters": {
              "width": 100,
              "depth": 11,
              "spikes": 64,
              "angle": 360,
              "innerRadius": 0,
              "extrudeBevelSize": 0,
              "extrudeBevelSegments": 1,
              "height": 100,
              "type": "EllipseGeometry"
            },
            "type": "EllipseGeometry"
          },
          "indices": 14
        }
      ]
    },
    {
      "primitives": [
        {
          "mode": 4,
          "attributes": {
            "POSITION": 15,
            "NORMAL": 16,
            "TEXCOORD_0": 17
          },
          "extras": {
            "parameters": {
              "type": "TextGeometry",
              "width": 471.31248916680363,
              "height": 96.66107790944079,
              "depth": 13,
              "horizontalAlign": 1,
              "verticalAlign": 1,
              "fontSize": 80,
              "lineHeight": 1.2,
              "letterSpacing": 0,
              "text": "Oliver Lundin",
              "textTransform": 1,
              "font": "Staatliches_regular",
              "extrudeBevelSize": 0,
              "extrudeBevelSegments": 1
            },
            "type": "TextGeometry"
          },
          "indices": 18
        }
      ]
    },
    {
      "primitives": [
        {
          "mode": 4,
          "attributes": {
            "POSITION": 19,
            "NORMAL": 20,
            "TEXCOORD_0": 21
          },
          "extras": {
            "shape": {
              "points": [
                -297.000219688508,
                140.1041890614183,
                -297.000219688508,
                140.1041890614183,
                -297.000219688508,
                140.1041890614183,
                86,
                297.000219688508,
                140.1041890614183,
                297.000219688508,
                140.1041890614183,
                297.000219688508,
                140.1041890614183,
                86,
                297.000219688508,
                -140.1041890614183,
                297.000219688508,
                -140.1041890614183,
                297.000219688508,
                -140.1041890614183,
                86,
                -297.000219688508,
                -140.1041890614183,
                -297.000219688508,
                -140.1041890614183,
                -297.000219688508,
                -140.1041890614183,
                86
              ],
              "shapeHoles": [],
              "isClosed": true,
              "roundness": 86
            },
            "parameters": {
              "width": 594.000439377016,
              "depth": 17.543375873004347,
              "cornerRadius": [
                86,
                86,
                86,
                86
              ],
              "cornerType": 0,
              "extrudeBevelSize": 5,
              "extrudeBevelSegments": 1,
              "height": 280.2083781228366,
              "type": "RectangleGeometry"
            },
            "ui": {
              "enabledIndieCorners": false
            },
            "type": "RectangleGeometry"
          },
          "indices": 22
        }
      ]
    }
  ],
  "cameras": [
    {
      "type": "orthographic",
      "orthographic": {
        "xmag": 11.610793301968354,
        "ymag": 5.50271340438922,
        "zfar": 100000,
        "znear": 0
      }
    }
  ],
  "extensionsUsed": [
    "KHR_lights_punctual"
  ]
}